<?xml version="1.0" encoding="UTF-8"?>
<svg width="1752px" height="468px" viewBox="0 0 1752 468" version="1.1" xmlns="http://www.w3.org/2000/svg" xmlns:xlink="http://www.w3.org/1999/xlink">
    <!-- Generator: Sketch 51.1 (57501) - http://www.bohemiancoding.com/sketch -->
    <title>inno-horizontal-no-bkgd-for-white</title>
    <desc>Created with Sketch.</desc>
    <defs></defs>
    <g id="inno-horizontal-no-bkgd-for-white" stroke="none" stroke-width="1" fill="none" fill-rule="evenodd">
        <g id="inno-name-brackets-no-bkgd-for-white" transform="translate(372.000000, 116.000000)">
            <g id="InnoArchiTech" stroke-width="1" transform="translate(96.456920, 42.719414)">
                <path d="M1120.67239,47.8922693 L1120.67239,47.8922693 C1128.59751,41.794073 1136.83195,39.0386708 1145.67438,39.0386708 C1171.27368,39.0386708 1184.07333,52.4739265 1184.07333,80.2415456 L1184.07333,149.222719 L1157.25806,149.222719 L1157.25806,81.160013 C1157.25806,74.1433492 1156.03143,69.2519763 1153.89815,66.5179338 C1151.76488,63.4634957 1148.41564,62.2353126 1143.23178,62.2353126 C1135.92531,62.2353126 1128.59751,66.5179338 1120.67239,75.0511368 L1120.67239,149.222719 L1094.4651,149.222719 L1094.4651,0.28148236 L1120.67239,0.28148236 L1120.67239,47.8922693 Z M1079.22285,113.819005 L1079.22285,113.819005 C1078.30554,119.927881 1076.47092,125.727042 1073.74033,130.607735 C1070.98841,135.178712 1067.32984,139.151618 1063.67127,142.206056 C1059.71404,145.260494 1055.44749,147.6955 1050.26363,149.532435 C1045.37843,151.059654 1040.20524,151.978122 1034.4134,151.978122 C1027.10693,151.978122 1020.07779,150.749938 1013.68863,148.005216 C1007.58746,145.55953 1002.10494,141.89634 997.529067,137.015647 C993.262516,132.44467 989.603949,126.645509 986.86269,119.30845 C984.729415,112.291786 983.513448,104.356655 983.513448,95.5030563 C983.513448,86.6494577 984.729415,78.4152907 986.86269,71.3986269 C989.30529,64.680999 992.654533,58.5721228 997.529067,53.6914298 C1001.79562,49.1097726 1007.27814,45.147547 1013.3793,43.0115763 C1020.07779,40.2668539 1026.48828,39.0386708 1034.4134,39.0386708 C1040.20524,39.0386708 1045.69843,39.6581023 1050.26363,41.1853213 C1055.44749,43.0115763 1059.71404,45.147547 1063.67127,48.2019851 C1067.32984,51.5554591 1070.98841,55.2186488 1073.74033,60.0993419 C1076.17226,64.680999 1078.00688,70.1704437 1079.22285,76.2793199 L1051.49027,76.2793199 C1050.87162,70.7898752 1049.34633,67.4257214 1045.69843,64.9907148 C1042.64784,62.8440642 1038.98927,61.6265609 1034.4134,61.6265609 C1031.06416,61.6265609 1027.70425,62.2353126 1024.65366,63.4634957 C1021.9124,64.9907148 1019.17115,67.1266855 1017.33653,70.1704437 C1014.9046,72.9258459 1013.3793,76.2793199 1012.16334,80.5512614 C1010.94737,84.5241669 1010.63804,89.7145757 1010.63804,95.5030563 C1010.63804,101.003181 1010.94737,105.883874 1012.16334,110.155815 C1013.3793,114.128721 1014.9046,118.090946 1017.33653,120.846349 C1019.17115,123.580391 1021.9124,125.727042 1024.65366,126.944545 C1027.70425,128.471764 1031.06416,129.379552 1034.4134,129.379552 C1036.23735,129.379552 1038.37062,129.080516 1040.20524,128.162048 C1042.33852,127.863012 1044.16247,126.645509 1045.69843,125.417326 C1047.21305,123.890107 1048.43968,122.362888 1049.65565,120.536633 C1050.26363,118.699698 1051.17028,116.563727 1051.49027,113.819005 L1079.22285,113.819005 Z M942.67189,81.4697288 L942.67189,81.4697288 C940.527949,74.7521009 938.096015,69.8714078 934.128123,66.5179338 C930.170897,63.15378 925.595021,61.6265609 920.101837,61.6265609 C914.928644,61.6265609 910.352768,63.15378 906.086218,66.5179338 C902.118325,69.8714078 899.377066,74.7521009 897.553116,81.4697288 L942.67189,81.4697288 Z M969.487162,115.65594 L969.487162,115.65594 C967.96187,121.4551 965.828595,126.645509 962.778011,130.906771 C960.036752,135.488428 956.68751,139.461333 952.420959,142.505092 C948.453067,145.55953 943.887857,148.005216 938.693332,149.532435 C933.210814,151.059654 927.728296,151.978122 921.936454,151.978122 C914.309994,151.978122 906.683535,150.450903 900.593033,148.005216 C893.883882,145.260494 888.710689,141.89634 883.836155,136.705931 C879.26028,132.134954 875.292387,126.335793 872.860453,119.30845 C870.417853,112.291786 869.201886,104.057619 869.201886,95.5030563 C869.201886,86.6494577 870.417853,78.7250064 872.860453,71.6976628 C875.292387,64.680999 878.950955,58.8818386 883.52683,54.3001814 C887.793381,49.1097726 893.286565,45.147547 899.377066,43.0115763 C905.787559,40.2668539 912.795369,39.0386708 920.101837,39.0386708 C927.728296,39.0386708 934.736106,40.2668539 941.434591,43.0115763 C947.546425,45.147547 952.719618,49.1097726 957.295493,53.6914298 C961.562044,58.5721228 965.220611,64.680999 967.652545,71.3986269 C969.785821,78.4152907 971.311113,86.6494577 971.311113,95.5030563 L971.311113,103.747903 L897.243791,103.747903 C898.161099,112.291786 901.510342,118.699698 905.787559,122.672604 C910.352768,126.944545 915.835286,129.379552 921.936454,129.379552 C924.059063,129.379552 926.203004,129.080516 928.33628,128.471764 C930.170897,127.863012 931.994847,126.944545 934.128123,125.727042 C935.642748,124.808574 937.178706,122.97164 938.693332,121.4551 C939.919965,119.618166 940.527949,117.781231 941.434591,115.65594 L969.487162,115.65594 Z M864.327352,149.532435 L864.327352,149.532435 C860.967443,150.450903 857.916859,150.749938 855.1756,151.059654 C852.445008,151.668406 849.693083,151.978122 847.250482,151.978122 C841.159981,151.978122 835.976122,151.059654 832.018896,149.532435 C828.658987,148.005216 825.608403,146.178961 823.475128,143.124523 C821.651178,140.379801 820.435211,136.705931 820.125886,132.134954 C819.208577,127.863012 818.909919,122.672604 818.909919,116.873443 L818.909919,63.7625316 L807.016908,63.7625316 L807.016908,41.1853213 L818.909919,41.1853213 L818.909919,14.9342414 L845.735857,14.9342414 L845.735857,41.1853213 L862.194076,41.1853213 L862.194076,63.7625316 L845.735857,63.7625316 L845.735857,117.781231 C845.735857,120.536633 846.034515,122.362888 846.034515,123.890107 C846.642499,125.417326 846.951824,126.335793 847.250482,127.254261 C847.869132,128.162048 848.167791,128.471764 848.775774,129.080516 C849.383758,129.379552 849.991741,129.379552 850.90905,129.379552 C852.743666,129.379552 854.876942,129.379552 856.999551,129.080516 C859.132826,128.471764 861.575427,128.162048 864.327352,127.863012 L864.327352,149.532435 Z M325.099332,129.379552 L325.099332,129.379552 C328.448574,129.379552 331.499158,128.471764 334.539075,126.944545 C337.291001,125.727042 339.722934,123.580391 342.165535,120.846349 C344.000152,118.090946 345.514777,114.128721 346.741411,110.155815 C347.957377,105.883874 348.565361,101.003181 348.565361,95.5030563 C348.565361,89.7145757 347.957377,84.5241669 346.741411,80.5512614 C345.514777,76.2793199 344.000152,72.9258459 342.165535,70.1704437 C339.722934,67.1266855 337.291001,64.9907148 334.539075,63.4634957 C331.499158,62.2353126 328.448574,61.6265609 325.099332,61.6265609 C321.440764,61.6265609 318.080856,62.2353126 315.339597,63.4634957 C311.990354,64.9907148 309.857079,67.1266855 307.723804,70.1704437 C305.579862,72.9258459 304.065236,76.2793199 302.849269,80.5512614 C301.622636,84.5241669 301.323977,89.7145757 301.323977,95.5030563 C301.323977,101.003181 301.622636,105.883874 302.849269,110.155815 C304.065236,114.128721 305.579862,118.090946 307.723804,120.846349 C309.857079,123.580391 311.990354,125.727042 315.339597,126.944545 C318.080856,128.471764 321.440764,129.379552 325.099332,129.379552 L325.099332,129.379552 Z M325.099332,39.0386708 L325.099332,39.0386708 C332.715125,39.0386708 339.722934,40.2668539 345.824102,43.0115763 C352.223928,45.147547 357.717112,49.1097726 361.983663,53.6914298 C366.548872,58.5721228 370.20744,64.680999 372.340715,71.3986269 C374.783315,78.4152907 375.999282,86.6494577 375.999282,95.5030563 C375.999282,104.057619 374.783315,112.291786 372.340715,119.30845 C369.599456,126.335793 366.548872,132.134954 361.983663,136.705931 C357.717112,141.89634 352.223928,145.260494 345.824102,148.005216 C339.424276,150.450903 332.715125,151.978122 325.099332,151.978122 C317.163547,151.978122 310.465063,150.749938 304.065236,148.005216 C297.66541,145.55953 292.172226,141.89634 287.905675,137.015647 C283.340466,132.44467 280.289882,126.645509 277.548623,119.30845 C275.106023,112.291786 273.890056,104.356655 273.890056,95.5030563 C273.890056,86.6494577 275.106023,78.4152907 277.548623,71.3986269 C279.681899,64.680999 283.340466,58.5721228 287.905675,53.6914298 C292.172226,49.1097726 297.66541,45.147547 304.065236,43.0115763 C310.155738,40.2668539 317.163547,39.0386708 325.099332,39.0386708 L325.099332,39.0386708 Z M192.196275,47.8922693 L192.196275,47.8922693 C200.121393,41.794073 208.34517,39.0386708 217.187596,39.0386708 C242.797567,39.0386708 255.59722,52.4739265 255.59722,80.2415456 L255.59722,149.222719 L228.771281,149.222719 L228.771281,81.160013 C228.771281,74.1433492 227.853973,69.2519763 225.422039,66.5179338 C223.288764,63.4634957 219.928855,62.2353126 214.744996,62.2353126 C207.438528,62.2353126 200.121393,66.5179338 192.196275,75.0511368 L192.196275,149.222719 L165.97832,149.222719 L165.97832,41.1853213 L192.196275,41.1853213 L192.196275,47.8922693 Z M77.8847132,47.8922693 L77.8847132,47.8922693 C85.8098313,41.794073 94.0442743,39.0386708 103.185359,39.0386708 C128.486005,39.0386708 141.285658,52.4739265 141.285658,80.2415456 L141.285658,149.222719 L114.470386,149.222719 L114.470386,81.160013 C114.470386,74.1433492 113.243753,69.2519763 111.419802,66.5179338 C108.977202,63.4634957 105.62796,62.2353126 100.4441,62.2353126 C93.4362908,62.2353126 85.8098313,66.5179338 77.8847132,75.0511368 L77.8847132,149.222719 L51.3681001,149.222719 L51.3681001,41.1853213 L77.8847132,41.1853213 L77.8847132,47.8922693 Z M26.9847624,28.0597813 L26.9847624,28.0597813 L0.46814935,28.0597813 L0.46814935,0.28148236 L26.9847624,0.28148236 L26.9847624,28.0597813 Z M26.9847624,149.222719 L0.46814935,149.222719 L0.46814935,41.1746415 L26.9847624,41.1746415 L26.9847624,149.222719 Z" id="Fill-13" fill="#13264A"></path>
                <path d="M793.296748,21.0367097 L793.296748,21.0367097 L774.097269,21.0367097 L774.097269,0.285754302 L793.296748,0.285754302 L793.296748,21.0367097 Z M793.296748,149.226991 L793.296748,149.226991 L774.097269,149.226991 L774.097269,41.1789134 L793.296748,41.1789134 L793.296748,149.226991 Z M683.561062,55.2229208 L683.561062,55.2229208 C688.136937,49.4237603 693.320797,45.7605706 698.813981,43.0158482 C704.285832,40.260446 709.779016,39.0429427 715.570859,39.0429427 C739.954197,39.0429427 752.156532,52.1684827 752.156532,78.7185985 L752.156532,149.226991 L732.637062,149.226991 L732.637062,79.6370659 C732.637062,75.0554087 732.338404,71.392219 731.73042,68.3484607 C731.122437,64.9843069 729.90647,62.2395845 728.071853,60.4133296 C726.237236,58.5763948 724.413285,57.0491757 721.66136,56.1413882 C719.229426,55.2229208 716.189509,54.913205 712.8296,54.913205 C703.069865,54.913205 693.320797,60.4133296 683.561062,72.0009706 L683.561062,149.226991 L664.660242,149.226991 L664.660242,0.285754302 L683.561062,0.285754302 L683.561062,55.2229208 Z M609.803065,151.971714 L609.803065,151.971714 C602.176606,151.971714 595.77678,150.75421 589.376953,148.009488 C583.286452,145.563802 577.793268,141.900612 573.217392,137.019919 C568.950841,132.438262 565.292274,126.639101 562.86034,119.312722 C560.727065,112.296058 559.201773,104.360927 559.201773,95.5073282 C559.201773,86.6537297 560.727065,78.4195626 562.86034,71.392219 C565.292274,64.3755552 568.950841,58.5763948 573.217392,53.6957017 C577.494609,48.8150087 582.977127,45.1518189 589.078295,42.3964167 C595.168796,40.260446 602.176606,39.0429427 609.803065,39.0429427 C615.594908,39.0429427 621.077426,39.3419786 625.962626,40.8691976 C631.135819,42.3964167 635.40237,44.8421032 639.359596,47.8965413 C642.719504,50.6412636 645.770088,54.6141691 648.511347,58.8754307 C650.943281,63.1580519 652.479239,68.3484607 653.076556,73.5388695 L633.269094,73.5388695 C633.269094,70.4737516 632.650445,67.7397091 631.434478,64.9843069 C630.218511,62.8483362 628.39456,60.7123655 626.261285,58.8754307 C624.128009,57.3588915 621.685409,56.1413882 618.94415,55.2229208 C616.192225,54.3044534 613.152308,53.6957017 609.803065,53.6957017 C605.525848,53.6957017 601.259297,54.913205 597.302071,56.4404241 C593.643504,57.9676431 590.294262,60.7123655 587.542337,64.3755552 C584.801078,67.7397091 582.977127,72.0009706 581.14251,77.1913794 C579.617218,82.691504 579.009235,88.4906645 579.009235,95.5073282 C579.009235,102.224956 579.617218,108.323152 581.14251,113.513561 C582.977127,118.394254 584.801078,122.676876 587.542337,126.329385 C590.294262,129.693539 593.643504,132.438262 597.302071,133.965481 C601.259297,136.101451 605.525848,136.710203 609.803065,136.710203 C612.842983,136.710203 615.893566,136.411167 618.634825,135.4927 C621.386751,134.883948 624.128009,133.356729 625.962626,131.519794 C628.39456,130.003255 629.919852,128.16632 631.434478,125.720634 C632.650445,122.975911 633.269094,120.530225 633.269094,117.176751 L653.076556,117.176751 C652.479239,122.676876 650.943281,127.856604 648.511347,132.128546 C645.770088,136.411167 642.719504,140.373393 638.762279,143.118115 C635.40237,146.172553 630.527836,148.009488 625.962626,149.526027 C621.077426,151.053246 615.594908,151.971714 609.803065,151.971714 L609.803065,151.971714 Z M558.593789,58.8754307 L558.593789,58.8754307 C555.841864,57.9676431 552.193963,57.6579274 547.308763,57.6579274 C542.434228,57.6579274 537.858353,58.8754307 533.293143,61.6308329 C529.634576,63.7668036 525.666684,67.7397091 522.008117,72.919438 L522.008117,149.226991 L503.107297,149.226991 L503.107297,41.1789134 L522.008117,41.1789134 L522.008117,56.4404241 C529.933235,44.8421032 539.69297,39.0429427 550.050022,39.0429427 C552.801947,39.0429427 555.543206,39.0429427 558.593789,39.6516943 L558.593789,58.8754307 Z M461.348431,138.237422 L461.348431,138.237422 C451.290037,147.400736 438.79971,151.971714 423.856116,151.971714 C418.373598,151.971714 413.499064,151.053246 409.232513,149.526027 C404.656637,148.009488 400.688745,146.172553 397.648828,143.427831 C394.288919,140.683109 391.856985,137.019919 390.022368,133.655765 C387.889093,129.693539 387.281109,125.421598 387.281109,120.839941 C387.281109,95.5073282 408.62453,82.9905399 452.207346,82.9905399 L461.348431,82.9905399 C461.348431,78.4195626 461.348431,74.1476212 461.049772,70.4737516 C460.740447,67.1202776 459.823139,63.7668036 458.297847,61.6308329 C456.473897,58.8754307 454.031296,57.0491757 450.682054,55.8316724 C447.023487,54.6141691 442.148952,53.6957017 435.749126,53.6957017 C418.672257,53.6957017 409.840497,60.1036138 409.232513,72.6204021 L390.022368,72.6204021 C391.54766,50.032512 407.088571,39.0429427 436.655768,39.0429427 C443.674244,39.0429427 449.466087,39.3419786 454.948605,40.5701617 C460.431122,41.787665 465.006998,43.9236358 468.97489,46.6683581 C472.633458,50.032512 475.374717,54.3044534 477.507992,59.4948622 C479.331942,64.6745911 480.558576,71.392219 480.558576,79.6370659 L480.558576,149.226991 L461.348431,149.226991 L461.348431,138.237422 Z M461.348431,120.839941 L461.348431,97.0345473 L448.239454,97.0345473 C420.197549,97.0345473 406.480588,104.360927 406.480588,119.622437 C406.480588,125.111882 408.62453,129.383824 412.880414,132.438262 C416.848306,135.182984 422.330824,136.710203 429.039975,136.710203 C432.399884,136.710203 435.439801,136.411167 438.490385,135.4927 C441.530303,134.883948 444.890211,133.965481 447.322145,132.438262 C450.07407,131.220758 452.815329,129.383824 455.25793,127.247853 C457.689864,125.720634 459.823139,123.584663 461.348431,120.839941 L461.348431,120.839941 Z" id="Fill-14" fill="#EA4110"></path>
            </g>
            <polygon id="[" fill="#13264A" points="64.628433 232 0 232 0 0 64.628433 0 64.628433 17.9323671 18.0909706 17.9323671 18.0909706 213.943103 64.628433 213.943103"></polygon>
            <polygon id="]" fill="#13264A" points="1373.28519 232 1309.15582 232 1309.15582 213.943103 1355.19422 213.943103 1355.19422 17.9323671 1309.15582 17.9323671 1309.15582 0 1373.28519 0"></polygon>
        </g>
        <g id="inno-bulb-no-bkgd-for-white" transform="translate(-95.000000, -18.000000)">
            <g id="inno-bulb-logo" transform="translate(98.000000, 23.000000)">
                <g id="Group-16" fill-rule="nonzero">
                    <path d="M243.5068,58.9087 C220.0428,35.1777 187.1428,20.6117 151.2738,20.6117 C115.1328,20.6117 82.4998,35.1777 58.7688,58.9087 C35.0378,82.6447 20.4718,115.2787 20.4718,151.4187 C20.4718,196.7237 38.2728,227.2057 56.3398,258.4857 C71.7128,284.6497 87.0848,310.8137 93.8258,346.4057 L151.2738,346.4057 L208.7168,346.4057 C215.4628,310.8137 230.8348,284.6497 245.9308,258.4857 C264.0038,227.2057 281.7998,196.7237 281.7998,151.4187 C281.7998,115.2787 267.2378,82.6447 243.5068,58.9087 M151.2738,0.6547 C192.8008,0.6547 230.2918,17.6447 257.5338,44.8867 C285.0438,72.1247 301.7618,109.6157 301.7618,151.4187 C301.7618,201.8527 282.6108,235.0217 262.9258,268.4657 C247.5528,294.8977 231.9138,322.4077 226.7888,358.5427 L218.6978,366.3667 L151.2738,366.3667 L83.5778,366.3667 L75.4908,358.5427 C70.3668,322.4077 54.7228,294.8977 39.3508,268.4657 C19.6658,235.0217 0.5148,201.8527 0.5148,151.4187 C0.5148,109.6157 17.5048,72.1247 44.7468,44.8867 C71.9848,17.6447 109.4698,0.6547 151.2738,0.6547" id="Fill-2" fill="#EA4110"></path>
                    <polygon id="Fill-4" fill="#13264A" points="208.1729 395.2227 94.0979 395.2227 86.0059 387.1307 86.0059 376.0807 216.2649 376.0807 216.2649 387.4077"></polygon>
                    <polygon id="Fill-6" fill="#13264A" points="92.4805 405.4707 209.7945 405.4707 209.7945 416.5297 201.7045 424.6207 100.5725 424.6207 92.4805 416.5297"></polygon>
                    <polygon id="Fill-8" fill="#13264A" points="115.1333 434.8691 187.1423 434.8691 187.1423 445.9291 179.3183 453.7531 122.9533 453.7531 115.1333 445.9291"></polygon>
                    <path d="M86.0811,239.4453 C86.6201,239.4203 87.1451,239.1283 87.6711,238.8363 C88.4561,238.2553 89.2491,237.9493 90.0341,237.3773 C90.5601,237.0763 91.0851,236.7833 91.5991,236.2243 C92.1241,235.9233 92.6371,235.3623 92.8831,234.8073 C93.3961,234.2483 93.6381,233.6913 93.8841,233.1453 C94.1261,232.5893 94.1011,232.0553 94.3461,231.5003 C94.5761,230.6773 94.5501,230.1423 94.5121,229.3333 C94.4861,228.7903 94.7201,227.9763 94.4111,227.1783 C94.3721,226.3683 94.3341,225.5583 94.0291,224.7663 C92.6461,218.3493 82.8181,193.1643 80.8971,186.7733 C80.5751,185.7093 80.2581,184.6443 79.9221,183.3093 C79.6181,182.5163 79.3081,181.7183 79.2691,180.9133 C78.9651,180.1153 78.9261,179.3053 78.8881,178.5003 C78.8631,177.9623 78.8371,177.4233 78.8121,176.8843 C78.7871,176.3453 79.0151,175.5233 78.9901,174.9853 C78.9641,174.4463 79.2111,173.8953 79.4521,173.3433 C79.4271,172.8053 79.6731,172.2543 79.9271,171.9693 C80.1731,171.4183 80.4141,170.8673 80.9281,170.3033 C81.1861,170.0193 81.4291,169.4673 81.9411,168.9033 C82.2011,168.6243 82.7141,168.0603 82.9681,167.7763 C83.4981,167.4833 84.0111,166.9193 84.5371,166.6223 C85.0631,166.3303 85.5761,165.7613 86.3691,165.4563 C86.8951,165.1643 87.6921,164.8543 88.4891,164.5443 C89.2691,163.9683 90.3341,163.6503 91.1311,163.3403 C92.1831,162.7513 93.2481,162.4333 94.0451,162.1243 L95.6471,161.7803 L97.7461,171.9413 C95.6301,172.8483 93.5011,173.4883 91.9571,175.1853 C91.7031,175.4653 91.7161,175.7363 91.4571,176.0163 C91.2031,176.2993 91.2281,176.8393 90.9701,177.1183 C90.9821,177.3903 90.7271,177.6693 90.7401,177.9413 C90.7661,178.4793 90.7781,178.7463 90.8041,179.2893 C90.8171,179.5563 90.8301,179.8283 90.8551,180.3663 C91.1471,180.8923 91.1731,181.4313 91.4701,181.9573 C91.4951,182.4953 91.7881,183.0213 91.8131,183.5603 C94.0181,190.2053 104.4611,216.9853 105.5891,223.6803 C105.6271,224.4863 105.9321,225.2833 105.9701,226.0893 C106.0081,226.8993 106.0461,227.7093 106.0851,228.5193 C105.8551,229.3333 105.8811,229.8763 105.6481,230.6983 C105.6731,231.2333 105.4391,232.0553 105.1981,232.6113 C105.2241,233.1453 104.9771,233.7013 104.7241,233.9813 C104.4771,234.5273 104.2361,235.0843 103.9771,235.3633 L103.4771,236.1983 L101.2201,239.8103 L105.3461,241.5083 C105.8841,241.4823 106.1691,241.7463 106.7201,241.9873 C107.2711,242.2283 107.5551,242.4833 107.8351,242.7473 C108.3871,242.9883 108.6701,243.2433 109.2221,243.4833 C109.5021,243.7473 109.7861,244.0023 110.3371,244.2443 C110.6291,244.7733 110.9141,245.0283 111.2061,245.5583 C111.7621,245.8003 112.0541,246.3213 112.3391,246.5853 C112.9021,247.0923 113.1951,247.6233 113.4921,248.1453 C113.7851,248.6743 114.0941,249.4723 114.3871,249.9943 C114.6841,250.5243 115.2601,251.2993 115.5651,252.0973 C118.5931,258.9753 125.4821,284.8433 129.0311,291.4213 C129.3161,291.6843 129.5961,291.9383 129.6081,292.2053 C129.8921,292.4603 130.1851,292.9903 130.4691,293.2443 C130.7361,293.2313 131.0201,293.4853 131.3001,293.7493 C131.5721,293.7363 131.8521,293.9913 132.4021,294.2333 C132.6741,294.2203 132.9411,294.2083 133.2251,294.4613 C133.4921,294.4483 134.0351,294.4233 134.3031,294.4103 C135.9311,294.6103 137.7921,293.9783 139.6541,293.3553 L144.1651,303.1253 L142.5581,303.4773 C141.7661,303.7833 140.7011,304.1003 139.9041,304.4153 C138.8391,304.7323 138.0421,305.0383 136.9651,305.0893 C136.4391,305.3823 135.6331,305.4193 135.1081,305.7203 C134.2981,305.7583 133.7591,305.7843 133.2211,305.8093 C132.4111,305.8473 131.6051,305.8853 130.7951,305.9243 C130.2441,305.6743 129.4341,305.7123 128.8941,305.7373 C128.0771,305.5083 127.5391,305.5333 126.9871,305.2913 C126.4361,305.0503 125.8841,304.7993 125.6011,304.5463 C125.0491,304.3033 124.4981,304.0523 124.2131,303.7993 C123.6621,303.5573 123.3831,303.3023 122.8191,302.7853 C122.5221,302.2643 121.9701,302.0133 121.6781,301.4923 C121.3811,300.9623 120.8171,300.4533 120.5241,299.9233 C120.2151,299.1253 119.6381,298.3493 119.3331,297.5523 C119.0231,296.7553 118.4471,295.9703 118.1241,294.9063 C115.3601,287.7483 108.2251,262.4353 104.6751,255.8493 C104.3791,255.3293 104.0861,254.7983 103.7891,254.2763 C103.4971,253.7463 103.2121,253.4923 102.9201,252.9613 C102.6361,252.7083 102.3441,252.1853 102.0591,251.9233 C101.4961,251.4143 101.2111,251.1603 100.9311,250.8963 C100.3681,250.3883 100.0831,250.1333 99.5321,249.8833 C99.2521,249.6293 98.9811,249.6413 98.4291,249.3993 C98.1491,249.1353 97.5991,248.8943 97.3271,248.9083 C96.7761,248.6663 96.5041,248.6783 95.9651,248.7043 C95.4141,248.4623 94.8761,248.4873 94.3371,248.5123 C93.8111,248.8053 93.5441,248.8183 93.0061,248.8433 C92.1961,248.8823 91.3981,249.1873 90.8601,249.2133 C90.3211,249.2383 90.0661,249.5173 89.5281,249.5433 L86.0811,239.4453 Z" id="Fill-10" fill="#13264A"></path>
                    <path d="M216.1875,239.4609 C215.6525,239.4359 215.1225,239.1419 214.6015,238.8509 C213.8175,238.2689 213.0195,237.9619 212.2445,237.3909 C211.7145,237.0879 211.1835,236.7949 210.6755,236.2359 C210.1455,235.9339 209.6375,235.3739 209.3965,234.8179 C208.8785,234.2579 208.6385,233.7019 208.3965,233.1559 C208.1465,232.5999 208.1715,232.0649 207.9305,231.5099 C207.9685,230.6999 207.7285,230.1519 207.7675,229.3429 C207.7925,228.7999 207.8315,227.9989 207.8705,227.1889 C207.9095,226.3789 207.9475,225.5689 208.2515,224.7759 C209.6385,218.3609 219.4875,193.1819 221.6735,186.8049 C222.0005,185.7409 222.3205,184.6759 222.6525,183.3409 C222.6905,182.5349 222.9955,181.7379 223.0345,180.9319 C223.3495,180.1349 223.3885,179.3249 223.4265,178.5199 C223.4525,177.9819 223.4785,177.4429 223.5035,176.9039 C223.5295,176.3659 223.5685,175.5559 223.3175,175.0039 C223.3425,174.4649 223.1025,173.9149 223.1275,173.3759 C222.8865,172.8249 222.6445,172.2729 222.3815,171.9889 C222.1415,171.4379 221.8995,170.8859 221.6585,170.3349 C221.1275,170.0369 220.8875,169.4859 220.6455,168.9349 C220.1155,168.6419 219.8755,168.0899 219.3445,167.7929 C218.8225,167.5009 218.3055,166.9359 218.0515,166.6519 C217.2545,166.3459 216.7465,165.7769 215.9495,165.4719 C215.4185,165.1789 214.6215,164.8679 213.8335,164.5589 C213.0495,163.9819 211.9855,163.6629 211.1875,163.3529 C210.1365,162.7629 209.3395,162.4569 208.2755,162.1339 L206.6765,161.7899 L204.5675,171.9489 C206.6825,172.8569 208.8115,173.4989 210.3545,175.1959 C210.6085,175.4769 210.8625,175.7599 210.8495,176.0279 C211.1135,176.3119 211.3545,176.8639 211.3415,177.1299 C211.3295,177.4019 211.5825,177.6819 211.5695,177.9529 C211.5435,178.4919 211.5305,178.7589 211.5045,179.3019 C211.4925,179.5689 211.4795,179.8399 211.4535,180.3789 C211.1615,180.9039 211.1355,181.4429 211.1095,181.9819 C210.8165,182.5079 210.7915,183.0459 210.4895,183.5709 C208.2805,190.2149 197.8305,216.9889 196.6975,223.6839 C196.6595,224.4899 196.6205,225.2999 196.5825,226.1059 C196.2665,226.9019 196.2285,227.7119 196.4655,228.5349 C196.4275,229.3359 196.4015,229.8789 196.6295,230.7019 C196.6045,231.2359 196.8335,232.0589 197.0835,232.6149 C197.3255,233.1609 197.2985,233.7049 197.5525,233.9849 C197.7935,234.5309 198.0435,235.0879 198.2985,235.3679 L198.7935,236.2029 L201.0575,239.8169 L196.9255,241.5119 C196.3825,241.4849 196.1025,241.7489 195.5455,241.9899 C195.2665,242.2429 194.7195,242.4849 194.4305,242.7479 C193.8835,242.9899 193.6045,243.2439 193.3155,243.4979 C192.7685,243.7479 192.4885,244.0029 192.1995,244.2569 C191.6405,244.7729 191.3605,245.0279 191.0575,245.5589 C190.5105,245.7999 190.2085,246.3199 189.9295,246.5839 C189.6365,247.1049 189.0675,247.6219 188.7745,248.1439 C188.4825,248.6729 188.1765,249.4709 187.8755,249.9909 C187.5825,250.5219 187.2775,251.3109 186.6955,252.0949 C183.6715,258.9709 176.7615,284.8349 173.2085,291.4099 C172.9285,291.6729 172.9165,291.9399 172.6265,292.1929 C172.3475,292.4479 172.0545,292.9789 171.7755,293.2319 C171.4995,293.2189 171.2185,293.4739 170.9395,293.7359 C170.6715,293.7239 170.3835,293.9789 170.1035,294.2319 C169.5695,294.2069 169.2935,294.1939 169.0135,294.4469 C168.7465,294.4349 168.4705,294.4219 167.9365,294.3959 C166.3035,294.5949 164.4515,293.9629 162.5895,293.3379 L158.0725,303.1049 L159.6705,303.4579 C160.4675,303.7639 161.5315,304.0829 162.3295,304.3979 C163.3935,304.7149 164.1905,305.0219 165.2675,305.0719 C165.7895,305.3649 166.5985,305.4039 167.1285,305.7059 C167.9295,305.7439 168.4725,305.7709 169.2825,305.8099 C169.8165,305.8349 170.6255,305.8729 171.4375,305.9119 C171.9835,305.6609 172.7935,305.6999 173.6035,305.7389 C174.1605,305.4979 174.6935,305.5239 175.2495,305.2819 C175.7955,305.0409 176.3525,304.7909 176.8985,304.5489 C177.1785,304.2949 177.7355,304.0449 178.2915,303.8039 C178.5705,303.5499 179.1185,303.3079 179.4195,302.7769 C179.9785,302.2699 180.2595,302.0069 180.5605,301.4859 C181.1205,300.9689 181.4135,300.4459 181.7145,299.9169 C182.2895,299.1319 182.5925,298.3439 182.9085,297.5479 C183.4815,296.7629 183.7955,295.9659 184.1135,294.9019 C187.1495,287.7579 194.0345,262.4379 197.5865,255.8539 C197.8795,255.3319 198.1815,254.8029 198.4745,254.2799 C198.7675,253.7509 199.0465,253.4959 199.3485,252.9659 C199.6285,252.7129 199.9215,252.1909 200.4775,251.9399 C200.7695,251.4199 201.0495,251.1659 201.6065,250.9149 C201.8985,250.3949 202.1775,250.1399 202.7345,249.8899 C203.0135,249.6359 203.5565,249.6609 203.8365,249.4069 C204.1175,249.1439 204.6725,248.9029 204.9405,248.9159 C205.4865,248.6739 205.7635,248.6879 206.2965,248.7129 C206.8525,248.4719 207.3865,248.4969 207.9295,248.5239 C208.4515,248.8159 208.9945,248.8419 209.2615,248.8549 C210.0715,248.8939 210.8695,249.1989 211.4025,249.2249 C211.9455,249.2509 212.4665,249.5429 212.7425,249.5559 L216.1875,239.4609 Z" id="Fill-12" fill="#13264A"></path>
                    <path d="M158.0107,181.8911 L158.0107,171.9151 L182.8287,161.9341 L158.0107,152.2251 L158.0107,142.2481 L193.6127,157.8881 L192.5337,166.7911 L158.0107,181.8911 Z M144.2607,181.8911 L144.2607,171.9151 L119.4507,161.9341 L144.2607,152.2251 L144.2607,142.2481 L108.6587,157.8881 L110.0097,166.7911 L144.2607,181.8911 Z" id="Fill-14" fill="#EA4110"></path>
                </g>
            </g>
        </g>
    </g>
</svg>